<?xml version="1.0" standalone="no"?>
<!DOCTYPE svg PUBLIC "-//W3C//DTD SVG 1.1//EN" "http://www.w3.org/Graphics/SVG/1.1/DTD/svg11.dtd" >
<svg xmlns="http://www.w3.org/2000/svg">
<metadata></metadata>
<defs>
<font id="sf_speedwaystarregular" horiz-adv-x="1024" >
<font-face units-per-em="2048" ascent="1638" descent="-410" />
<missing-glyph horiz-adv-x="768" />
<glyph horiz-adv-x="2048" />
<glyph horiz-adv-x="2048" />
<glyph unicode="&#xd;" horiz-adv-x="2048" />
<glyph unicode=" "  horiz-adv-x="768" />
<glyph unicode="&#x09;" horiz-adv-x="768" />
<glyph unicode="&#xa0;" horiz-adv-x="768" />
<glyph unicode="!" horiz-adv-x="427" d="M85 0v256h256v-256h-256zM85 427v938h256v-938h-256z" />
<glyph unicode="&#x22;" horiz-adv-x="768" d="M85 1365h256l-68 -426h-119zM427 1365h256l-69 -426h-119z" />
<glyph unicode="#" horiz-adv-x="1280" d="M85 478v222h212l20 222h-232v221h251l19 222h222l-19 -222h222l19 222h222l-19 -222h193v-221h-212l-20 -222h232v-222h-251l-19 -222h-222l19 222h-222l-19 -222h-222l19 222h-193zM519 700h222l20 222h-222z" />
<glyph unicode="$" d="M85 406v38h256v-28q0 -105 30 -133q30 -27 141 -27q107 0 135 22q36 25 36 128q0 101 -36 128q-29 21 -135 21q-427 0 -427 404q0 340 299 396v181h256v-181q299 -56 299 -396v-37h-256v27q0 106 -30 133t-141 27q-107 0 -135 -22q-36 -26 -36 -128q0 -101 36 -128 q29 -20 135 -20q427 0 427 -405q0 -340 -299 -396v-179h-256v179q-299 56 -299 396z" />
<glyph unicode="%" horiz-adv-x="1365" d="M85 939v170q0 138 59 197t197 59t197 -59t59 -197v-170q0 -139 -59 -198q-58 -58 -197 -58t-197 58q-59 59 -59 198zM171 0l768 1365h256l-768 -1365h-256zM256 939q0 -86 85 -86q86 0 86 86v170q0 86 -86 86q-85 0 -85 -86v-170zM768 256v171q0 138 59 197t197 59 t197 -59t59 -197v-171q0 -138 -59 -197t-197 -59t-197 59t-59 197zM939 256q0 -85 85 -85t85 85v171q0 85 -85 85t-85 -85v-171z" />
<glyph unicode="&#x26;" d="M85 406q0 93 46 167q46 76 128 110q-82 34 -128 109q-46 74 -46 167q0 340 299 396v181h256v-171h299v-256h-427q-105 0 -133 -22q-38 -27 -38 -128q0 -98 31 -123t130 -25h266v-256h-266q-98 0 -130 -26q-31 -25 -31 -123q0 -101 38 -128q28 -22 133 -22h427v-256h-299 v-169h-256v179q-299 56 -299 396z" />
<glyph unicode="'" horiz-adv-x="427" d="M85 1365h256l-68 -426h-119z" />
<glyph unicode="(" horiz-adv-x="597" d="M85 256v853q0 428 427 427v-256q-104 0 -138 -34q-33 -33 -33 -137v-853q0 -103 34 -137q35 -35 137 -34v-254q-427 -1 -427 425z" />
<glyph unicode=")" horiz-adv-x="597" d="M85 85q103 0 137 34t34 137v853q0 104 -34 138t-137 33v256q427 0 427 -427v-853q0 -426 -427 -425v254z" />
<glyph unicode="*" horiz-adv-x="928" d="M85 870l191 111l-191 111l94 162l191 -111v222h188v-222l191 111l94 -162l-191 -111l191 -111l-94 -162l-191 111v-222h-188v222l-191 -111z" />
<glyph unicode="+" horiz-adv-x="939" d="M85 555v256h256v256h256v-256h256v-256h-256v-256h-256v256h-256z" />
<glyph unicode="," horiz-adv-x="427" d="M85 256h256l-68 -425h-119z" />
<glyph unicode="-" horiz-adv-x="939" d="M85 555v256h768v-256h-768z" />
<glyph unicode="." horiz-adv-x="427" d="M85 0v256h256v-256h-256z" />
<glyph unicode="/" horiz-adv-x="689" d="M0 -108l442 1647l247 -64l-442 -1647z" />
<glyph unicode="0" d="M85 427v512q0 426 427 426t427 -426v-512q0 -427 -427 -427t-427 427zM341 427q0 -104 33 -138q34 -33 138 -33t137 33q34 34 34 138v512q0 104 -34 137q-33 33 -137 33t-138 -33q-33 -33 -33 -137v-512z" />
<glyph unicode="1" horiz-adv-x="427" d="M85 0v1365h256v-1365h-256z" />
<glyph unicode="2" d="M85 0v372q0 405 427 405q102 0 136 31q35 32 35 134t-35 134q-35 33 -136 33q-121 0 -148 -36q-23 -28 -23 -151h-256v37q0 406 427 406t427 -423q0 -421 -427 -421q-106 0 -133 -21q-38 -27 -38 -128v-116h598v-256h-854z" />
<glyph unicode="3" d="M85 0v256h427q105 0 133 22q38 27 38 128q0 98 -31 123q-32 26 -130 26h-266v256h266q99 0 130 25t31 123q0 101 -38 128q-28 22 -133 22h-427v256h427q427 0 427 -406q0 -93 -46 -167q-44 -74 -128 -109q84 -35 128 -110q46 -74 46 -167q0 -406 -427 -406h-427z" />
<glyph unicode="4" d="M85 256v1109h256v-853h342v853h256v-1365h-256v256h-598z" />
<glyph unicode="5" d="M85 427h256q-1 -102 34 -137q34 -34 137 -34q102 0 136 34q35 35 35 137v136q0 104 -34 137q-33 34 -137 34q-103 0 -137 -34t-34 -137h-256v802h768v-256h-512v-244q101 125 265 125q173 0 259 -132q74 -113 74 -295v-136q0 -427 -427 -427t-427 427z" />
<glyph unicode="6" d="M85 427v512q0 426 427 426h341v-256h-341q-102 0 -137 -35q-34 -34 -34 -134v-75q99 125 265 125q173 0 259 -132q74 -113 74 -295v-136q0 -427 -427 -427t-427 427zM341 427q0 -103 34 -137t137 -34q102 0 136 34q35 35 35 137v136q0 102 -35 137q-34 34 -136 34 q-103 0 -137 -34t-34 -137v-136z" />
<glyph unicode="7" horiz-adv-x="879" d="M68 0l468 1109h-468v256h854l-576 -1365h-278z" />
<glyph unicode="8" d="M85 406q0 206 174 277q-174 70 -174 276q0 406 427 406t427 -406q0 -206 -174 -276q174 -71 174 -277q0 -406 -427 -406t-427 406zM341 406q0 -101 36 -128q28 -22 135 -22t135 22q36 27 36 128t-38 128q-27 21 -133 21t-133 -21q-38 -27 -38 -128zM341 959 q0 -101 38 -128q28 -20 133 -20t133 20q38 27 38 128t-36 128q-28 22 -135 22t-135 -22q-36 -27 -36 -128z" />
<glyph unicode="9" d="M85 802v137q0 426 427 426t427 -426v-512q0 -427 -427 -427h-341v256h341q101 0 136 35t35 134v75q-99 -125 -265 -125q-174 0 -259 132q-74 113 -74 295zM341 802q0 -103 34 -137t137 -34q102 0 136 34q35 35 35 137v137q0 101 -35 136q-34 34 -136 34q-103 0 -137 -34 t-34 -136v-137z" />
<glyph unicode=":" horiz-adv-x="427" d="M85 0v256h256v-256h-256zM85 768v256h256v-256h-256z" />
<glyph unicode=";" horiz-adv-x="427" d="M85 256h256l-68 -425h-119zM85 768v256h256v-256h-256z" />
<glyph unicode="&#x3c;" horiz-adv-x="561" d="M85 683l125 341h266l-126 -341l126 -342h-266z" />
<glyph unicode="=" horiz-adv-x="939" d="M85 341v256h768v-256h-768zM85 768v256h768v-256h-768z" />
<glyph unicode="&#x3e;" horiz-adv-x="561" d="M85 341l127 342l-127 341h267l124 -341l-124 -342h-267z" />
<glyph unicode="?" d="M85 0v256h256v-256h-256zM85 427q0 215 118 309q107 83 328 83q94 0 123 23t29 117q0 101 -36 128q-28 22 -135 22q-109 0 -137 -22q-34 -27 -34 -131v-34h-256v37q0 406 427 406t427 -406q0 -396 -427 -396q-110 0 -133 -13q-39 -24 -38 -123h-256z" />
<glyph unicode="@" horiz-adv-x="1365" d="M85 427v512q0 426 427 426h341q427 0 427 -426v-227q0 -427 -427 -427q-18 0 -35.5 6t-30.5 17t-21 26t-8 33q-72 -82 -186 -82q-198 0 -198 237q0 29 5.5 97.5t16.5 177.5q28 283 246 283q112 0 170 -82l7 82h171l-55 -619q174 27 174 251v227q0 138 -59 197t-197 59 h-341q-138 0 -197 -59t-59 -197v-512q0 -139 59 -198q58 -58 197 -58h683v-171h-683q-427 0 -427 427zM544 536q0 -51 29 -68q21 -12 77 -12q70 0 93 22q24 22 32 90l20 229q1 10 1.5 17.5t0.5 14.5q0 53 -31 69q-20 12 -77 12q-67 0 -92 -23q-24 -23 -30 -90l-21 -229 q-1 -9 -1.5 -17t-0.5 -15z" />
<glyph unicode="A" d="M85 0v939q0 426 427 426t427 -426v-939h-256v256h-342v-256h-256zM341 512h342v427q0 104 -34 137q-33 33 -137 33t-138 -33q-33 -33 -33 -137v-427z" />
<glyph unicode="B" d="M85 0v1365h427q427 0 427 -406q0 -206 -174 -276q174 -71 174 -277q0 -406 -427 -406h-427zM341 256h171q107 0 135 22q36 27 36 128t-38 128q-27 21 -133 21h-171v-299zM341 811h171q105 0 133 20q38 27 38 128t-36 128q-28 22 -135 22h-171v-298z" />
<glyph unicode="C" d="M85 427v512q0 426 427 426t427 -426v-86h-256v86q0 104 -34 137q-33 33 -137 33t-138 -33q-33 -33 -33 -137v-512q0 -104 33 -138q34 -33 138 -33t137 33q34 34 34 138v85h256v-85q0 -427 -427 -427t-427 427z" />
<glyph unicode="D" d="M85 0v1365h427q427 0 427 -426v-512q0 -427 -427 -427h-427zM341 256h171q104 0 137 33q34 34 34 138v512q0 104 -34 137q-33 33 -137 33h-171v-853z" />
<glyph unicode="E" d="M85 0v1365h854v-256h-598v-298h427v-256h-427v-299h598v-256h-854z" />
<glyph unicode="F" horiz-adv-x="981" d="M85 0v1365h854v-256h-598v-298h427v-256h-427v-555h-256z" />
<glyph unicode="G" d="M85 427v512q0 426 427 426t427 -426v-86h-256q1 49 1 72t0 19q0 99 -37 132q-36 33 -135 33q-103 0 -137 -34t-34 -136v-512q0 -103 34 -137t137 -34q102 0 136 34q35 35 35 137h-171v256h427v-683h-256v125q-99 -125 -265 -125q-173 0 -259 131q-74 113 -74 296z" />
<glyph unicode="H" d="M85 0v1365h256v-554h342v554h256v-1365h-256v555h-342v-555h-256z" />
<glyph unicode="I" horiz-adv-x="427" d="M85 0v1365h256v-1365h-256z" />
<glyph unicode="J" horiz-adv-x="981" d="M43 427v85h256v-85q0 -104 33 -138q33 -33 137 -33t137 33q34 34 34 138v938h256v-938q0 -427 -427 -427q-426 0 -426 427z" />
<glyph unicode="K" d="M85 0v1365h256v-522l302 522h296l-321 -554q167 -5 251 -137q70 -112 70 -290v-384h-256v384q0 101 -35 136t-136 35q-102 0 -137 -35q-34 -34 -34 -136v-384h-256z" />
<glyph unicode="L" horiz-adv-x="981" d="M85 0v1365h256v-1109h598v-256h-854z" />
<glyph unicode="M" horiz-adv-x="1621" d="M85 0v939q0 426 427 426q230 0 299 -148q67 148 298 148q427 0 427 -426v-939h-256v939q0 104 -34 137q-33 33 -137 33t-137 -33t-33 -137v-939h-256v939q0 104 -34 137q-33 33 -137 33t-138 -33q-33 -33 -33 -137v-939h-256z" />
<glyph unicode="N" d="M85 0v939q0 426 427 426t427 -426v-939h-256v939q0 104 -34 137q-33 33 -137 33t-138 -33q-33 -33 -33 -137v-939h-256z" />
<glyph unicode="O" d="M85 427v512q0 426 427 426t427 -426v-512q0 -427 -427 -427t-427 427zM341 427q0 -104 33 -138q34 -33 138 -33t137 33q34 34 34 138v512q0 104 -34 137q-33 33 -137 33t-138 -33q-33 -33 -33 -137v-512z" />
<glyph unicode="P" horiz-adv-x="981" d="M85 0v1365h427q427 0 427 -406q0 -404 -427 -404h-171v-555h-256zM341 811h171q106 0 135 20q36 27 36 128t-36 128q-28 22 -135 22h-171v-298z" />
<glyph unicode="Q" d="M85 427v512q0 426 427 426t427 -426v-512q0 -355 -299 -415v-266h-256v266q-299 60 -299 415zM341 427q0 -104 33 -138q34 -33 138 -33t137 33q34 34 34 138v512q0 104 -34 137q-33 33 -137 33t-138 -33q-33 -33 -33 -137v-512z" />
<glyph unicode="R" d="M85 0v1365h427q427 0 427 -406q0 -206 -174 -276q174 -71 174 -277v-406h-256v406q0 101 -38 128q-27 21 -133 21h-171v-555h-256zM341 811h171q105 0 133 20q38 27 38 128t-36 128q-28 22 -135 22h-171v-298z" />
<glyph unicode="S" d="M85 406v38h256v-18q0 -109 23 -136q28 -34 148 -34q107 0 135 22q36 25 36 128q0 101 -36 128q-29 21 -135 21q-427 0 -427 404q0 406 427 406t427 -406v-37h-256v10q0 115 -23 143q-28 34 -148 34q-107 0 -135 -22q-36 -26 -36 -128q0 -103 36 -128q29 -20 135 -20 q427 0 427 -405q0 -406 -427 -406t-427 406z" />
<glyph unicode="T" horiz-adv-x="939" d="M43 1109v256h853v-256h-299v-1109h-256v1109h-298z" />
<glyph unicode="U" d="M85 427v938h256v-938q0 -104 33 -138q34 -33 138 -33t137 33q34 34 34 138v938h256v-938q0 -427 -427 -427t-427 427z" />
<glyph unicode="V" d="M85 0v1365h256v-1109h171q102 0 136 34q35 35 35 137v938h256v-938q0 -183 -74 -296q-86 -131 -259 -131h-521z" />
<glyph unicode="W" horiz-adv-x="1621" d="M85 427v938h256v-938q0 -104 33 -138q34 -33 138 -33t137 33q34 34 34 138v938h256v-938q0 -104 33 -138q33 -33 137 -33t137 33q34 34 34 138v938h256v-938q0 -427 -427 -427q-231 0 -298 148q-69 -148 -299 -148q-427 0 -427 427z" />
<glyph unicode="X" d="M85 0v406q0 92 45 167q46 75 129 110q-83 35 -129 109q-45 75 -45 167v406h256v-406q0 -101 38 -128q28 -20 133 -20t133 20q38 27 38 128v406h256v-406q0 -206 -174 -276q174 -71 174 -277v-406h-256v406q0 101 -38 128q-27 21 -133 21t-133 -21q-38 -27 -38 -128v-406 h-256z" />
<glyph unicode="Y" d="M85 853v512h256v-512q0 -102 34 -136t137 -34q102 0 136 34q35 35 35 136v512h256v-938q0 -427 -427 -427h-256v256h256q104 0 137 33q34 34 34 138v124q-100 -124 -265 -124q-173 0 -259 131q-74 113 -74 295z" />
<glyph unicode="Z" horiz-adv-x="990" d="M68 0l468 1109h-468v256h854l-468 -1109h468v-256h-854z" />
<glyph unicode="[" horiz-adv-x="597" d="M85 -169v1705h427v-256h-171v-1195h171v-254h-427z" />
<glyph unicode="\" horiz-adv-x="689" d="M0 1475l247 64l442 -1647l-247 -64z" />
<glyph unicode="]" horiz-adv-x="597" d="M85 85h171v1195h-171v256h427v-1705h-427v254z" />
<glyph unicode="^" horiz-adv-x="768" d="M85 1109l205 256h188l205 -256h-188l-111 139l-111 -139h-188z" />
<glyph unicode="_" horiz-adv-x="768" d="M0 0v85h768v-85h-768z" />
<glyph unicode="`" horiz-adv-x="512" d="M85 1707h171l171 -256h-171z" />
<glyph unicode="a" d="M85 427q0 182 74 295q86 131 259 131q166 0 265 -124v124q0 102 -35 137q-34 34 -136 34h-341v256h341q427 0 427 -427v-853h-256v125q-99 -125 -265 -125q-173 0 -259 131q-74 113 -74 296zM341 427q0 -103 34 -137t137 -34q102 0 136 34q35 35 35 137q0 101 -35 136 q-34 34 -136 34q-103 0 -137 -34t-34 -136z" />
<glyph unicode="b" d="M85 0v1365h256v-210q101 125 265 125q173 0 259 -131q74 -113 74 -296v-426q0 -183 -74 -296q-86 -131 -259 -131q-164 0 -265 125v-125h-256zM341 427q0 -104 33 -138q34 -33 138 -33t137 33q34 34 34 138v426q0 104 -34 137q-33 34 -137 34t-138 -34q-33 -33 -33 -137 v-426z" />
<glyph unicode="c" d="M85 427v426q0 427 427 427t427 -427v-85h-256v85q0 104 -34 137q-33 34 -137 34t-138 -34q-33 -33 -33 -137v-426q0 -104 33 -138q34 -33 138 -33t137 33q34 34 34 138v85h256v-85q0 -427 -427 -427t-427 427z" />
<glyph unicode="d" d="M85 427v426q0 183 74 296q86 131 259 131q164 0 265 -125v210h256v-1365h-256v125q-101 -125 -265 -125q-173 0 -259 131q-74 113 -74 296zM341 427q0 -104 33 -138q34 -33 138 -33t137 33q34 34 34 138v426q0 104 -34 137q-33 34 -137 34t-138 -34q-33 -33 -33 -137 v-426z" />
<glyph unicode="e" d="M85 427v426q0 427 427 427t427 -427v-426h-598v-12v-9q0 -88 36 -119q37 -31 135 -31h341v-256h-341q-427 0 -427 427zM341 683h342v170q0 102 -35 137q-34 34 -136 34q-103 0 -137 -34t-34 -137v-170z" />
<glyph unicode="f" horiz-adv-x="862" d="M43 427v256h85v256q0 426 427 426h256v-256h-256q-103 0 -137 -34t-34 -136v-256h427v-256h-427v-427h-256v427h-85z" />
<glyph unicode="g" d="M85 597v256q0 183 74 296q86 131 259 131q164 0 265 -125v125h256v-1109q0 -425 -427 -425h-256v254h256q104 0 137 33q34 34 34 138v124q-100 -124 -265 -124q-173 0 -259 131q-74 113 -74 295zM341 597q0 -104 33 -137q34 -33 138 -33t137 33q34 33 34 137v256 q0 104 -34 137q-33 34 -137 34t-138 -34q-33 -33 -33 -137v-256z" />
<glyph unicode="h" d="M85 0v1365h256v-210q101 125 265 125q173 0 259 -131q74 -113 74 -296v-853h-256v853q0 104 -34 137q-33 34 -137 34t-138 -34q-33 -33 -33 -137v-853h-256z" />
<glyph unicode="i" horiz-adv-x="427" d="M85 0v1280h256v-1280h-256z" />
<glyph unicode="j" horiz-adv-x="640" d="M43 0q157 0 187 12q69 28 69 159v1109h256v-1109q0 -425 -427 -425h-85v254z" />
<glyph unicode="k" d="M85 0v1365h256v-607l302 522h296l-297 -514q158 -14 234 -145q63 -111 63 -280v-341h-256v341q0 102 -35 137q-34 34 -136 34q-103 0 -137 -34t-34 -137v-341h-256z" />
<glyph unicode="l" horiz-adv-x="427" d="M85 0v1365h256v-1365h-256z" />
<glyph unicode="m" horiz-adv-x="1621" d="M85 0v1280h256v-125q101 125 265 125q201 0 290 -189q25 51 55 87t67 58.5t82.5 33t102.5 10.5q174 0 260 -131q73 -112 73 -296v-853h-256v853q0 103 -34 137t-137 34q-102 0 -136 -34t-34 -137v-853h-256v853q0 102 -35 137q-34 34 -136 34q-103 0 -137 -34t-34 -137 v-853h-256z" />
<glyph unicode="n" d="M85 0v1280h256v-125q101 125 265 125q173 0 259 -131q74 -113 74 -296v-853h-256v853q0 104 -34 137q-33 34 -137 34t-138 -34q-33 -33 -33 -137v-853h-256z" />
<glyph unicode="o" d="M85 427v426q0 427 427 427t427 -427v-426q0 -427 -427 -427t-427 427zM341 427q0 -104 33 -138q34 -33 138 -33t137 33q34 34 34 138v426q0 104 -34 137q-33 34 -137 34t-138 -34q-33 -33 -33 -137v-426z" />
<glyph unicode="p" d="M85 -254v1534h256v-125q101 125 265 125q173 0 259 -131q74 -113 74 -296v-426q0 -183 -74 -296q-86 -131 -259 -131q-164 0 -265 125v-379h-256zM341 427q0 -104 33 -138q34 -33 138 -33t137 33q34 34 34 138v426q0 104 -34 137q-33 34 -137 34t-138 -34 q-33 -33 -33 -137v-426z" />
<glyph unicode="q" d="M85 427v426q0 183 74 296q86 131 259 131q164 0 265 -125v125h256v-1534h-256v379q-101 -125 -265 -125q-173 0 -259 131q-74 113 -74 296zM341 427q0 -104 33 -138q34 -33 138 -33t137 33q34 34 34 138v426q0 104 -34 137q-33 34 -137 34t-138 -34q-33 -33 -33 -137 v-426z" />
<glyph unicode="r" horiz-adv-x="981" d="M85 0v1280h256v-125q101 125 265 125q173 0 259 -131q74 -113 74 -296v-85h-256q0 160 -12 189q-28 67 -159 67q-103 0 -137 -34t-34 -137v-853h-256z" />
<glyph unicode="s" d="M85 384v38h256v-26q0 -107 41 -130q20 -10 150 -10q90 0 115 19q36 24 36 109q0 87 -41 111q-29 17 -123 17q-218 0 -319 82q-115 91 -115 302q0 208 113 300q102 84 314 84t314 -84q113 -92 113 -300v-38h-256v26q0 107 -41 130q-20 10 -150 10q-90 0 -115 -19 q-36 -24 -36 -109q0 -86 40 -111q28 -17 119 -17q219 0 323 -80q116 -92 116 -304q0 -208 -113 -300q-102 -84 -314 -84t-314 84q-113 92 -113 300z" />
<glyph unicode="t" horiz-adv-x="862" d="M43 939v256h85v170h256v-170h427v-256h-427v-512q0 -103 34 -137t137 -34h256v-256h-256q-427 0 -427 427v512h-85z" />
<glyph unicode="u" d="M85 427v853h256v-853q0 -104 33 -138q34 -33 138 -33t137 33q34 34 34 138v853h256v-1280h-256v125q-101 -125 -265 -125q-173 0 -259 131q-74 113 -74 296z" />
<glyph unicode="v" d="M85 0v1280h256v-1024h171q102 0 136 34q35 35 35 137v853h256v-853q0 -183 -74 -296q-86 -131 -259 -131h-521z" />
<glyph unicode="w" horiz-adv-x="1621" d="M85 427v853h256v-853q0 -103 34 -137t137 -34q102 0 136 34q35 35 35 137v853h256v-853q0 -103 34 -137t136 -34q103 0 137 34t34 137v853h256v-1280h-256v125q-101 -125 -265 -125q-202 0 -290 189q-26 -51 -55.5 -87t-66.5 -58.5t-82.5 -33t-102.5 -10.5 q-173 0 -259 131q-74 113 -74 296z" />
<glyph unicode="x" d="M85 0v364q0 92 45 167q46 74 129 109q-83 35 -129 109q-45 75 -45 167v364h256v-364q0 -99 38 -128q28 -20 133 -20t133 20q38 29 38 128v364h256v-364q0 -206 -174 -276q174 -71 174 -276v-364h-256v364q0 99 -38 128q-28 20 -133 20t-133 -20q-38 -29 -38 -128v-364 h-256z" />
<glyph unicode="y" d="M85 597v683h256v-683q0 -102 34 -136t137 -34q102 0 136 34q35 35 35 136v683h256v-1109q0 -425 -427 -425h-256v254h256q104 0 137 33q34 34 34 138v124q-100 -124 -265 -124q-173 0 -259 131q-74 113 -74 295z" />
<glyph unicode="z" horiz-adv-x="990" d="M68 0l451 1024h-451v256h854l-451 -1024h451v-256h-854z" />
<glyph unicode="{" horiz-adv-x="768" d="M85 555v256q103 0 132 18q39 28 39 125v155q0 428 427 427v-256h-5q-101 0 -134 -35q-32 -35 -32 -136v-150q0 -92 -45 -167q-45 -74 -129 -109q85 -35 129 -110q45 -75 45 -167v-150q0 -100 31 -135q31 -36 129 -36h11v-254q-427 -1 -427 425v155q0 98 -39 125 q-28 19 -132 19z" />
<glyph unicode="|" horiz-adv-x="427" d="M85 -169v1705h256v-1705h-256z" />
<glyph unicode="}" horiz-adv-x="768" d="M85 85h11q96 0 128 36q32 37 32 135v150q0 92 45 167q44 75 129 110q-84 35 -129 109q-45 75 -45 167v150q0 101 -33 136q-32 35 -133 35h-5v256q427 1 427 -427v-155q0 -97 39 -125q28 -18 132 -18v-256q-104 0 -132 -19q-39 -27 -39 -125v-155q0 -426 -427 -425v254z " />
<glyph unicode="~" horiz-adv-x="717" d="M85 1075v171q96 119 178 119q42 0 95 -60q53 -59 96 -59q84 0 177 119v-170q-93 -120 -177 -120q-44 0 -96 60q-53 60 -95 60q-82 0 -178 -120z" />
<glyph unicode="&#xa1;" horiz-adv-x="427" d="M85 -254v937h256v-937h-256zM85 853v256h256v-256h-256z" />
<glyph unicode="&#xa2;" d="M85 512v341q0 353 299 415v183h256v-183q299 -62 299 -415v-85h-256q0 160 -12 189q-28 67 -159 67q-104 0 -138 -34q-33 -33 -33 -137v-341q0 -104 33 -138q34 -33 138 -33q131 0 159 67q12 28 12 189h256v-85q0 -353 -299 -415v-164h-256v164q-299 62 -299 415z" />
<glyph unicode="&#xa3;" horiz-adv-x="1067" d="M43 597v171h85v171q0 426 427 426h256v-256h-256q-103 0 -137 -34t-34 -136v-171h427v-171h-427v-341h597v-256h-853v597h-85z" />
<glyph unicode="&#xa5;" d="M85 85v171h299v137h-299v170h299v89q-299 62 -299 415v298h256v-298q0 -103 34 -137t137 -34q102 0 136 34q35 35 35 137v298h256v-298q0 -353 -299 -415v-89h299v-170h-299v-137h299v-171h-299v-85h-256v85h-299z" />
<glyph unicode="&#xa6;" horiz-adv-x="427" d="M85 -169v732h256v-732h-256zM85 802v734h256v-734h-256z" />
<glyph unicode="&#xa7;" horiz-adv-x="928" d="M85 191v33h227v-33q0 -90 33 -114q25 -21 119 -21t120 21q32 24 32 114q0 89 -32 113q-23 19 -118 19q-381 0 -381 360q0 144 116 245q-116 101 -116 246q0 362 379 362t379 -362v-32h-227v32q0 91 -32 115q-26 20 -120 20q-93 0 -119 -20q-33 -24 -33 -115 q0 -90 33 -112q23 -19 118 -19q380 0 380 -360q0 -144 -116 -246q116 -102 116 -246q0 -360 -379 -360t-379 360zM312 683q0 -89 33 -113q26 -20 116 -20q95 0 121 18q34 24 34 115q0 88 -32 112q-26 21 -116 21q-99 0 -122 -19q-34 -24 -34 -114z" />
<glyph unicode="&#xa8;" horiz-adv-x="683" d="M85 1451v170h171v-170h-171zM427 1451v170h170v-170h-170z" />
<glyph unicode="&#xa9;" horiz-adv-x="1365" d="M85 427v512q0 426 427 426h341q427 0 427 -426v-512q0 -427 -427 -427h-341q-427 0 -427 427zM256 427q0 -139 59 -198q58 -58 197 -58h341q139 0 197 58q59 59 59 198v512q0 138 -59 197t-197 59h-341q-138 0 -197 -59t-59 -197v-512zM398 568v229q0 283 285 283 t285 -283v-58h-171v58q0 70 -23 91q-22 22 -91 22q-70 0 -92 -22q-23 -21 -23 -91v-229q0 -70 23 -91q22 -21 92 -21q68 0 91 21t23 91v58h171v-58q0 -283 -285 -283t-285 283z" />
<glyph unicode="&#xab;" horiz-adv-x="963" d="M85 683l125 341h266l-126 -341l126 -342h-266zM486 683l125 341h266l-126 -341l126 -342h-266z" />
<glyph unicode="&#xad;" horiz-adv-x="939" d="M85 555v256h768v-256h-768z" />
<glyph unicode="&#xae;" horiz-adv-x="1365" d="M85 427v512q0 426 427 426h341q427 0 427 -426v-512q0 -427 -427 -427h-341q-427 0 -427 427zM256 427q0 -139 59 -198q58 -58 197 -58h341q139 0 197 58q59 59 59 198v512q0 138 -59 197t-197 59h-341q-138 0 -197 -59t-59 -197v-512zM398 285v795h170v-82q67 82 178 82 q115 0 174 -87q48 -75 48 -196v-58h-171q0 106 -9 126q-18 45 -105 45q-69 0 -92 -23t-23 -90v-512h-170z" />
<glyph unicode="&#xaf;" horiz-adv-x="768" d="M0 1280v85h768v-85h-768z" />
<glyph unicode="&#xb0;" horiz-adv-x="512" d="M85 1195q0 70 50 120q52 50 121 50q70 0 120 -50q51 -50 51 -120t-51 -121q-50 -50 -120 -50q-69 0 -121 50q-50 52 -50 121zM188 1195q0 -28 20.5 -48.5t47.5 -20.5t47.5 20.5t20.5 48.5q0 27 -20.5 47.5t-47.5 20.5t-47.5 -20.5t-20.5 -47.5z" />
<glyph unicode="&#xb1;" horiz-adv-x="939" d="M85 0v256h768v-256h-768zM85 683v256h256v256h256v-256h256v-256h-256v-256h-256v256h-256z" />
<glyph unicode="&#xb4;" horiz-adv-x="512" d="M85 1451l171 256h171l-171 -256h-171z" />
<glyph unicode="&#xb6;" horiz-adv-x="1365" d="M85 959q0 406 427 406h768v-256h-128v-1363h-256v1363h-128v-1363h-256v809q-427 0 -427 404z" />
<glyph unicode="&#xb7;" horiz-adv-x="427" d="M85 555v256h256v-256h-256z" />
<glyph unicode="&#xb8;" horiz-adv-x="602" d="M85 -254h171q36 0 60.5 24.5t24.5 60.5t-24.5 60.5t-60.5 24.5l34 169h103l34 -169q90 -27 90 -119q0 -50 -38 -94q-37 -43 -86 -43h-308v86z" />
<glyph unicode="&#xbb;" horiz-adv-x="963" d="M85 341l127 342l-127 341h267l124 -341l-124 -342h-267zM486 341l127 342l-127 341h267l124 -341l-124 -342h-267z" />
<glyph unicode="&#xbf;" d="M85 150q0 396 427 396q108 0 133 14q39 24 38 123h256q0 -215 -118 -309q-107 -84 -328 -84q-95 0 -121 -20q-31 -25 -31 -120q0 -101 36 -128q28 -22 135 -22t139 24q32 26 32 130v34h256v-38q0 -404 -427 -404t-427 404zM683 853v256h256v-256h-256z" />
<glyph unicode="&#xc0;" d="M85 0v939q0 426 427 426t427 -426v-939h-256v256h-342v-256h-256zM341 512h342v427q0 104 -34 137q-33 33 -137 33t-138 -33q-33 -33 -33 -137v-427zM341 1707h171l171 -256h-171z" />
<glyph unicode="&#xc1;" d="M85 0v939q0 426 427 426t427 -426v-939h-256v256h-342v-256h-256zM341 512h342v427q0 104 -34 137q-33 33 -137 33t-138 -33q-33 -33 -33 -137v-427zM341 1451l171 256h171l-171 -256h-171z" />
<glyph unicode="&#xc2;" d="M85 0v939q0 426 427 426t427 -426v-939h-256v256h-342v-256h-256zM213 1451l205 256h188l205 -256h-188l-111 138l-111 -138h-188zM341 512h342v427q0 104 -34 137q-33 33 -137 33t-138 -33q-33 -33 -33 -137v-427z" />
<glyph unicode="&#xc3;" d="M85 0v939q0 426 427 426t427 -426v-939h-256v256h-342v-256h-256zM239 1451v170q96 120 178 120q42 0 95 -60q52 -60 96 -60q84 0 177 120v-171q-93 -119 -177 -119q-43 0 -96 59q-53 60 -95 60q-82 0 -178 -119zM341 512h342v427q0 104 -34 137q-33 33 -137 33t-138 -33 q-33 -33 -33 -137v-427z" />
<glyph unicode="&#xc4;" d="M85 0v939q0 426 427 426t427 -426v-939h-256v256h-342v-256h-256zM256 1451v170h171v-170h-171zM341 512h342v427q0 104 -34 137q-33 33 -137 33t-138 -33q-33 -33 -33 -137v-427zM598 1451v170h170v-170h-170z" />
<glyph unicode="&#xc5;" d="M85 0v939q0 426 427 426t427 -426v-939h-256v256h-342v-256h-256zM341 512h342v427q0 104 -34 137q-33 33 -137 33t-138 -33q-33 -33 -33 -137v-427zM341 1621q0 70 50 120q51 51 121 51t120 -51q51 -50 51 -120q0 -71 -51 -120q-50 -50 -120 -50q-69 0 -121 50 q-50 50 -50 120zM444 1621q0 -27 20.5 -47.5t47.5 -20.5t47.5 20.5t20.5 47.5q0 28 -20.5 48.5t-47.5 20.5t-47.5 -20.5t-20.5 -48.5z" />
<glyph unicode="&#xc6;" horiz-adv-x="1451" d="M85 0v939q0 182 74 295q86 131 259 131q165 0 265 -124v124h682v-256h-426v-298h256v-256h-256v-299h426v-256h-682v555h-342v-555h-256zM341 811h342v128q0 101 -35 136q-34 34 -136 34q-103 0 -137 -34t-34 -136v-128z" />
<glyph unicode="&#xc7;" d="M85 427v512q0 426 427 426t427 -426v-86h-256v86q0 104 -34 137q-33 33 -137 33t-138 -33q-33 -33 -33 -137v-512q0 -104 33 -138q34 -33 138 -33t137 33q34 34 34 138v85h256v-85q0 -389 -359 -424l17 -87q91 -27 91 -119q0 -50 -38 -94q-37 -43 -87 -43h-307v86h171 q36 0 60.5 24.5t24.5 60.5t-24.5 60.5t-60.5 24.5l17 87q-359 35 -359 424z" />
<glyph unicode="&#xc8;" d="M85 0v1365h854v-256h-598v-298h427v-256h-427v-299h598v-256h-854zM341 1707h171l171 -256h-171z" />
<glyph unicode="&#xc9;" d="M85 0v1365h854v-256h-598v-298h427v-256h-427v-299h598v-256h-854zM341 1451l171 256h171l-171 -256h-171z" />
<glyph unicode="&#xca;" d="M85 0v1365h854v-256h-598v-298h427v-256h-427v-299h598v-256h-854zM213 1451l205 256h188l205 -256h-188l-111 138l-111 -138h-188z" />
<glyph unicode="&#xcb;" d="M85 0v1365h854v-256h-598v-298h427v-256h-427v-299h598v-256h-854zM256 1451v170h171v-170h-171zM598 1451v170h170v-170h-170z" />
<glyph unicode="&#xcc;" horiz-adv-x="427" d="M44 1707h171l171 -256h-171zM85 0v1365h256v-1365h-256z" />
<glyph unicode="&#xcd;" horiz-adv-x="427" d="M44 1451l171 256h171l-171 -256h-171zM85 0v1365h256v-1365h-256z" />
<glyph unicode="&#xce;" horiz-adv-x="427" d="M-84 1451l205 256h188l205 -256h-188l-111 138l-111 -138h-188zM85 0v1365h256v-1365h-256z" />
<glyph unicode="&#xcf;" horiz-adv-x="427" d="M-41 1451v170h171v-170h-171zM85 0v1365h256v-1365h-256zM301 1451v170h170v-170h-170z" />
<glyph unicode="&#xd1;" d="M85 0v939q0 426 427 426t427 -426v-939h-256v939q0 104 -34 137q-33 33 -137 33t-138 -33q-33 -33 -33 -137v-939h-256zM239 1451v170q96 120 178 120q42 0 95 -60q52 -60 96 -60q84 0 177 120v-171q-93 -119 -177 -119q-43 0 -96 59q-53 60 -95 60q-82 0 -178 -119z" />
<glyph unicode="&#xd2;" d="M85 427v512q0 426 427 426t427 -426v-512q0 -427 -427 -427t-427 427zM341 427q0 -104 33 -138q34 -33 138 -33t137 33q34 34 34 138v512q0 104 -34 137q-33 33 -137 33t-138 -33q-33 -33 -33 -137v-512zM341 1707h171l171 -256h-171z" />
<glyph unicode="&#xd3;" d="M85 427v512q0 426 427 426t427 -426v-512q0 -427 -427 -427t-427 427zM341 427q0 -104 33 -138q34 -33 138 -33t137 33q34 34 34 138v512q0 104 -34 137q-33 33 -137 33t-138 -33q-33 -33 -33 -137v-512zM341 1451l171 256h171l-171 -256h-171z" />
<glyph unicode="&#xd4;" d="M85 427v512q0 426 427 426t427 -426v-512q0 -427 -427 -427t-427 427zM213 1451l205 256h188l205 -256h-188l-111 138l-111 -138h-188zM341 427q0 -104 33 -138q34 -33 138 -33t137 33q34 34 34 138v512q0 104 -34 137q-33 33 -137 33t-138 -33q-33 -33 -33 -137v-512z " />
<glyph unicode="&#xd5;" d="M85 427v512q0 426 427 426t427 -426v-512q0 -427 -427 -427t-427 427zM239 1451v170q96 120 178 120q42 0 95 -60q52 -60 96 -60q84 0 177 120v-171q-93 -119 -177 -119q-43 0 -96 59q-53 60 -95 60q-82 0 -178 -119zM341 427q0 -104 33 -138q34 -33 138 -33t137 33 q34 34 34 138v512q0 104 -34 137q-33 33 -137 33t-138 -33q-33 -33 -33 -137v-512z" />
<glyph unicode="&#xd6;" d="M85 427v512q0 426 427 426t427 -426v-512q0 -427 -427 -427t-427 427zM256 1451v170h171v-170h-171zM341 427q0 -104 33 -138q34 -33 138 -33t137 33q34 34 34 138v512q0 104 -34 137q-33 33 -137 33t-138 -33q-33 -33 -33 -137v-512zM598 1451v170h170v-170h-170z" />
<glyph unicode="&#xd7;" horiz-adv-x="894" d="M85 502l181 181l-181 181l181 180l181 -180l181 180l181 -180l-181 -181l181 -181l-181 -181l-181 181l-181 -181z" />
<glyph unicode="&#xd8;" d="M85 427v512q0 426 427 426t427 -426v-512q0 -427 -427 -427t-427 427zM341 427q0 -104 33 -138q34 -33 138 -33t137 33q34 34 34 138v128h-342v-128zM341 811h342v128q0 104 -34 137q-33 33 -137 33t-138 -33q-33 -33 -33 -137v-128z" />
<glyph unicode="&#xd9;" d="M85 427v938h256v-938q0 -104 33 -138q34 -33 138 -33t137 33q34 34 34 138v938h256v-938q0 -427 -427 -427t-427 427zM341 1707h171l171 -256h-171z" />
<glyph unicode="&#xda;" d="M85 427v938h256v-938q0 -104 33 -138q34 -33 138 -33t137 33q34 34 34 138v938h256v-938q0 -427 -427 -427t-427 427zM341 1451l171 256h171l-171 -256h-171z" />
<glyph unicode="&#xdb;" d="M85 427v938h256v-938q0 -104 33 -138q34 -33 138 -33t137 33q34 34 34 138v938h256v-938q0 -427 -427 -427t-427 427zM213 1451l205 256h188l205 -256h-188l-111 138l-111 -138h-188z" />
<glyph unicode="&#xdc;" d="M85 427v938h256v-938q0 -104 33 -138q34 -33 138 -33t137 33q34 34 34 138v938h256v-938q0 -427 -427 -427t-427 427zM256 1451v170h171v-170h-171zM598 1451v170h170v-170h-170z" />
<glyph unicode="&#xdd;" d="M85 853v512h256v-512q0 -102 34 -136t137 -34q102 0 136 34q35 35 35 136v512h256v-938q0 -427 -427 -427h-256v256h256q104 0 137 33q34 34 34 138v124q-100 -124 -265 -124q-173 0 -259 131q-74 113 -74 295zM341 1451l171 256h171l-171 -256h-171z" />
<glyph unicode="&#xde;" d="M85 0v1365h256v-210q101 125 265 125q173 0 259 -131q74 -113 74 -296v-341q0 -182 -74 -295q-86 -132 -259 -132q-164 0 -265 125v-210h-256zM341 512q0 -104 33 -138q34 -33 138 -33t137 33q34 34 34 138v341q0 104 -34 137q-33 34 -137 34t-138 -34q-33 -33 -33 -137 v-341z" />
<glyph unicode="&#xdf;" d="M85 -254v1619h427q427 0 427 -406q0 -206 -174 -276q174 -71 174 -277q0 -406 -427 -406v256q105 -2 137 23q34 25 34 127q0 101 -38 128q-29 23 -133 21v256q106 -2 133 20q38 27 38 128t-36 128q-28 22 -135 22h-171v-1363h-256z" />
<glyph unicode="&#xe0;" d="M85 427q0 182 74 295q86 131 259 131q166 0 265 -124v124q0 102 -35 137q-34 34 -136 34h-341v256h341q427 0 427 -427v-853h-256v125q-99 -125 -265 -125q-173 0 -259 131q-74 113 -74 296zM341 427q0 -103 34 -137t137 -34q102 0 136 34q35 35 35 137q0 101 -35 136 q-34 34 -136 34q-103 0 -137 -34t-34 -136zM341 1624h171l171 -256h-171z" />
<glyph unicode="&#xe1;" d="M85 427q0 182 74 295q86 131 259 131q166 0 265 -124v124q0 102 -35 137q-34 34 -136 34h-341v256h341q427 0 427 -427v-853h-256v125q-99 -125 -265 -125q-173 0 -259 131q-74 113 -74 296zM341 427q0 -103 34 -137t137 -34q102 0 136 34q35 35 35 137q0 101 -35 136 q-34 34 -136 34q-103 0 -137 -34t-34 -136zM341 1368l171 256h171l-171 -256h-171z" />
<glyph unicode="&#xe2;" d="M85 427q0 182 74 295q86 131 259 131q166 0 265 -124v124q0 102 -35 137q-34 34 -136 34h-341v256h341q427 0 427 -427v-853h-256v125q-99 -125 -265 -125q-173 0 -259 131q-74 113 -74 296zM213 1368l205 256h188l205 -256h-188l-111 138l-111 -138h-188zM341 427 q0 -103 34 -137t137 -34q102 0 136 34q35 35 35 137q0 101 -35 136q-34 34 -136 34q-103 0 -137 -34t-34 -136z" />
<glyph unicode="&#xe3;" d="M85 427q0 182 74 295q86 131 259 131q166 0 265 -124v124q0 102 -35 137q-34 34 -136 34h-341v256h341q427 0 427 -427v-853h-256v125q-99 -125 -265 -125q-173 0 -259 131q-74 113 -74 296zM239 1368v170q96 120 178 120q42 0 95 -60q52 -60 96 -60q84 0 177 120v-171 q-93 -119 -177 -119q-43 0 -96 59q-53 60 -95 60q-82 0 -178 -119zM341 427q0 -103 34 -137t137 -34q102 0 136 34q35 35 35 137q0 101 -35 136q-34 34 -136 34q-103 0 -137 -34t-34 -136z" />
<glyph unicode="&#xe4;" d="M85 427q0 182 74 295q86 131 259 131q166 0 265 -124v124q0 102 -35 137q-34 34 -136 34h-341v256h341q427 0 427 -427v-853h-256v125q-99 -125 -265 -125q-173 0 -259 131q-74 113 -74 296zM256 1368v170h171v-170h-171zM341 427q0 -103 34 -137t137 -34q102 0 136 34 q35 35 35 137q0 101 -35 136q-34 34 -136 34q-103 0 -137 -34t-34 -136zM598 1368v170h170v-170h-170z" />
<glyph unicode="&#xe5;" d="M85 427q0 182 74 295q86 131 259 131q166 0 265 -124v124q0 102 -35 137q-34 34 -136 34h-341v256h341q427 0 427 -427v-853h-256v125q-99 -125 -265 -125q-173 0 -259 131q-74 113 -74 296zM341 427q0 -103 34 -137t137 -34q102 0 136 34q35 35 35 137q0 101 -35 136 q-34 34 -136 34q-103 0 -137 -34t-34 -136zM341 1538q0 70 50 120q51 51 121 51t120 -51q51 -50 51 -120q0 -71 -51 -120q-50 -50 -120 -50q-69 0 -121 50q-50 50 -50 120zM444 1538q0 -27 20.5 -47.5t47.5 -20.5t47.5 20.5t20.5 47.5q0 28 -20.5 48.5t-47.5 20.5 t-47.5 -20.5t-20.5 -48.5z" />
<glyph unicode="&#xe6;" horiz-adv-x="1621" d="M85 427q0 182 74 295q86 131 259 131q166 0 265 -124v124q0 102 -35 137q-34 34 -136 34h-341v256h341q230 0 299 -148q67 148 298 148q427 0 427 -427v-426h-597q-1 -103 33 -137t137 -34h342v-256h-248q-163 0 -264 125v-125h-256v125q-99 -125 -265 -125 q-173 0 -259 131q-74 113 -74 296zM341 427q0 -103 34 -137t137 -34q102 0 136 34q35 35 35 137q0 101 -35 136q-34 34 -136 34q-103 0 -137 -34t-34 -136zM939 683h341v170q0 103 -34 137t-137 34q-102 0 -136 -34t-34 -137v-170z" />
<glyph unicode="&#xe7;" d="M85 427v426q0 427 427 427t427 -427v-85h-256v85q0 104 -34 137q-33 34 -137 34t-138 -34q-33 -33 -33 -137v-426q0 -104 33 -138q34 -33 138 -33t137 33q34 34 34 138v85h256v-85q0 -389 -359 -424l17 -87q91 -27 91 -119q0 -50 -38 -94q-37 -43 -87 -43h-307v86h171 q36 0 60.5 24.5t24.5 60.5t-24.5 60.5t-60.5 24.5l17 87q-359 35 -359 424z" />
<glyph unicode="&#xe8;" d="M85 427v426q0 427 427 427t427 -427v-426h-598v-12q-2 -96 36 -128q37 -31 135 -31h341v-256h-341q-427 0 -427 427zM341 683h342v170q0 102 -35 137q-34 34 -136 34q-103 0 -137 -34t-34 -137v-170zM341 1624h171l171 -256h-171z" />
<glyph unicode="&#xe9;" d="M85 427v426q0 427 427 427t427 -427v-426h-598v-12q-2 -96 36 -128q37 -31 135 -31h341v-256h-341q-427 0 -427 427zM341 683h342v170q0 102 -35 137q-34 34 -136 34q-103 0 -137 -34t-34 -137v-170zM341 1368l171 256h171l-171 -256h-171z" />
<glyph unicode="&#xea;" d="M85 427v426q0 427 427 427t427 -427v-426h-598v-12q-2 -96 36 -128q37 -31 135 -31h341v-256h-341q-427 0 -427 427zM213 1368l205 256h188l205 -256h-188l-111 138l-111 -138h-188zM341 683h342v170q0 102 -35 137q-34 34 -136 34q-103 0 -137 -34t-34 -137v-170z" />
<glyph unicode="&#xeb;" d="M85 427v426q0 427 427 427t427 -427v-426h-598v-12q-2 -96 36 -128q37 -31 135 -31h341v-256h-341q-427 0 -427 427zM256 1368v170h171v-170h-171zM341 683h342v170q0 102 -35 137q-34 34 -136 34q-103 0 -137 -34t-34 -137v-170zM598 1368v170h170v-170h-170z" />
<glyph unicode="&#xec;" horiz-adv-x="427" d="M84 1624h171l171 -256h-171zM85 0v1280h256v-1280h-256z" />
<glyph unicode="&#xed;" horiz-adv-x="427" d="M84 1368l171 256h171l-171 -256h-171zM85 0v1280h256v-1280h-256z" />
<glyph unicode="&#xee;" horiz-adv-x="427" d="M-84 1368l205 256h188l205 -256h-188l-111 138l-111 -138h-188zM85 0v1280h256v-1280h-256z" />
<glyph unicode="&#xef;" horiz-adv-x="427" d="M84 1368v170h171v-170h-171zM85 0v1280h256v-1280h-256zM426 1368v170h170v-170h-170z" />
<glyph unicode="&#xf1;" d="M85 0v1280h256v-125q101 125 265 125q173 0 259 -131q74 -113 74 -296v-853h-256v853q0 104 -34 137q-33 34 -137 34t-138 -34q-33 -33 -33 -137v-853h-256zM239 1368v170q96 120 178 120q42 0 95 -60q52 -60 96 -60q84 0 177 120v-171q-93 -119 -177 -119q-43 0 -96 59 q-53 60 -95 60q-82 0 -178 -119z" />
<glyph unicode="&#xf2;" d="M85 427v426q0 427 427 427t427 -427v-426q0 -427 -427 -427t-427 427zM341 427q0 -104 33 -138q34 -33 138 -33t137 33q34 34 34 138v426q0 104 -34 137q-33 34 -137 34t-138 -34q-33 -33 -33 -137v-426zM341 1624h171l171 -256h-171z" />
<glyph unicode="&#xf3;" d="M85 427v426q0 427 427 427t427 -427v-426q0 -427 -427 -427t-427 427zM341 427q0 -104 33 -138q34 -33 138 -33t137 33q34 34 34 138v426q0 104 -34 137q-33 34 -137 34t-138 -34q-33 -33 -33 -137v-426zM341 1368l171 256h171l-171 -256h-171z" />
<glyph unicode="&#xf4;" d="M85 427v426q0 427 427 427t427 -427v-426q0 -427 -427 -427t-427 427zM213 1368l205 256h188l205 -256h-188l-111 138l-111 -138h-188zM341 427q0 -104 33 -138q34 -33 138 -33t137 33q34 34 34 138v426q0 104 -34 137q-33 34 -137 34t-138 -34q-33 -33 -33 -137v-426z " />
<glyph unicode="&#xf5;" d="M85 427v426q0 427 427 427t427 -427v-426q0 -427 -427 -427t-427 427zM239 1368v170q96 120 178 120q42 0 95 -60q52 -60 96 -60q84 0 177 120v-171q-93 -119 -177 -119q-43 0 -96 59q-53 60 -95 60q-82 0 -178 -119zM341 427q0 -104 33 -138q34 -33 138 -33t137 33 q34 34 34 138v426q0 104 -34 137q-33 34 -137 34t-138 -34q-33 -33 -33 -137v-426z" />
<glyph unicode="&#xf6;" d="M85 427v426q0 427 427 427t427 -427v-426q0 -427 -427 -427t-427 427zM256 1368v170h171v-170h-171zM341 427q0 -104 33 -138q34 -33 138 -33t137 33q34 34 34 138v426q0 104 -34 137q-33 34 -137 34t-138 -34q-33 -33 -33 -137v-426zM598 1368v170h170v-170h-170z" />
<glyph unicode="&#xf7;" horiz-adv-x="939" d="M85 555v256h768v-256h-768zM341 171v256h256v-256h-256zM341 939v256h256v-256h-256z" />
<glyph unicode="&#xf8;" d="M85 427v426q0 436 427 436t427 -436v-426q0 -427 -427 -427t-427 427zM341 427q0 -104 33 -138q34 -33 138 -33t137 33q34 34 34 138v85h-342v-85zM341 768h342v85q0 104 -34 137q-33 34 -137 34t-138 -34q-33 -33 -33 -137v-85z" />
<glyph unicode="&#xf9;" d="M85 427v853h256v-853q0 -104 33 -138q34 -33 138 -33t137 33q34 34 34 138v853h256v-1280h-256v125q-101 -125 -265 -125q-173 0 -259 131q-74 113 -74 296zM341 1624h171l171 -256h-171z" />
<glyph unicode="&#xfa;" d="M85 427v853h256v-853q0 -104 33 -138q34 -33 138 -33t137 33q34 34 34 138v853h256v-1280h-256v125q-101 -125 -265 -125q-173 0 -259 131q-74 113 -74 296zM341 1368l171 256h171l-171 -256h-171z" />
<glyph unicode="&#xfb;" d="M85 427v853h256v-853q0 -104 33 -138q34 -33 138 -33t137 33q34 34 34 138v853h256v-1280h-256v125q-101 -125 -265 -125q-173 0 -259 131q-74 113 -74 296zM213 1368l205 256h188l205 -256h-188l-111 138l-111 -138h-188z" />
<glyph unicode="&#xfc;" d="M85 427v853h256v-853q0 -104 33 -138q34 -33 138 -33t137 33q34 34 34 138v853h256v-1280h-256v125q-101 -125 -265 -125q-173 0 -259 131q-74 113 -74 296zM256 1368v170h171v-170h-171zM598 1368v170h170v-170h-170z" />
<glyph unicode="&#xfd;" d="M85 597v683h256v-683q0 -102 34 -136t137 -34q102 0 136 34q35 35 35 136v683h256v-1109q0 -425 -427 -425h-256v254h256q104 0 137 33q34 34 34 138v124q-100 -124 -265 -124q-173 0 -259 131q-74 113 -74 295zM341 1368l171 256h171l-171 -256h-171z" />
<glyph unicode="&#xfe;" d="M85 -84v1364h256v-210q101 125 265 125q173 0 259 -132q74 -113 74 -295v-341q0 -183 -74 -296q-86 -131 -259 -131q-164 0 -265 125v-209h-256zM341 427q0 -104 33 -138q34 -33 138 -33t137 33q34 34 34 138v341q0 104 -34 137q-33 34 -137 34t-138 -34 q-33 -33 -33 -137v-341z" />
<glyph unicode="&#xff;" d="M85 597v683h256v-683q0 -102 34 -136t137 -34q102 0 136 34q35 35 35 136v683h256v-1109q0 -425 -427 -425h-256v254h256q104 0 137 33q34 34 34 138v124q-100 -124 -265 -124q-173 0 -259 131q-74 113 -74 295zM256 1368v170h171v-170h-171zM598 1368v170h170v-170h-170 z" />
<glyph unicode="&#x152;" horiz-adv-x="1451" d="M85 427v512q0 182 74 295q86 131 259 131q165 0 265 -124v124h682v-256h-426v-298h256v-256h-256v-299h426v-256h-682v125q-101 -125 -265 -125q-173 0 -259 131q-74 113 -74 296zM341 427q0 -104 33 -138q34 -33 138 -33t137 33q34 34 34 138v512q0 104 -34 137 q-33 33 -137 33t-138 -33q-33 -33 -33 -137v-512z" />
<glyph unicode="&#x153;" horiz-adv-x="1621" d="M85 427v426q0 427 427 427q230 0 299 -148q67 148 298 148q427 0 427 -427v-426h-597q-1 -103 33 -137t137 -34h342v-256h-342q-231 0 -298 148q-69 -148 -299 -148q-427 0 -427 427zM341 427q0 -103 34 -137t137 -34q102 0 136 34q35 35 35 137v426q0 102 -35 137 q-34 34 -136 34q-103 0 -137 -34t-34 -137v-426zM939 683h341v170q0 103 -34 137t-137 34q-102 0 -136 -34t-34 -137v-170z" />
<glyph unicode="&#x178;" d="M85 853v512h256v-512q0 -102 34 -136t137 -34q102 0 136 34q35 35 35 136v512h256v-938q0 -427 -427 -427h-256v256h256q104 0 137 33q34 34 34 138v124q-100 -124 -265 -124q-173 0 -259 131q-74 113 -74 295zM256 1451v170h171v-170h-171zM598 1451v170h170v-170h-170z " />
<glyph unicode="&#x2c6;" horiz-adv-x="768" d="M85 1451l205 256h188l205 -256h-188l-111 138l-111 -138h-188z" />
<glyph unicode="&#x2dc;" horiz-adv-x="717" d="M85 1451v170q96 120 178 120q42 0 95 -60q52 -60 96 -60q84 0 177 120v-171q-93 -119 -177 -119q-43 0 -96 59q-53 60 -95 60q-82 0 -178 -119z" />
<glyph unicode="&#x2000;" horiz-adv-x="896" />
<glyph unicode="&#x2001;" horiz-adv-x="1792" />
<glyph unicode="&#x2002;" horiz-adv-x="896" />
<glyph unicode="&#x2003;" horiz-adv-x="1792" />
<glyph unicode="&#x2004;" horiz-adv-x="597" />
<glyph unicode="&#x2005;" horiz-adv-x="448" />
<glyph unicode="&#x2006;" horiz-adv-x="298" />
<glyph unicode="&#x2007;" horiz-adv-x="298" />
<glyph unicode="&#x2008;" horiz-adv-x="224" />
<glyph unicode="&#x2009;" horiz-adv-x="358" />
<glyph unicode="&#x200a;" horiz-adv-x="99" />
<glyph unicode="&#x2010;" horiz-adv-x="939" d="M85 555v256h768v-256h-768z" />
<glyph unicode="&#x2011;" horiz-adv-x="939" d="M85 555v256h768v-256h-768z" />
<glyph unicode="&#x2012;" horiz-adv-x="939" d="M85 555v256h768v-256h-768z" />
<glyph unicode="&#x2013;" horiz-adv-x="768" d="M85 555v256h598v-256h-598z" />
<glyph unicode="&#x2014;" horiz-adv-x="1109" d="M85 555v256h939v-256h-939z" />
<glyph unicode="&#x2018;" horiz-adv-x="427" d="M85 1365h256l-68 -426h-119z" />
<glyph unicode="&#x2019;" horiz-adv-x="427" d="M85 1365h256l-68 -426h-119z" />
<glyph unicode="&#x201a;" horiz-adv-x="427" d="M85 256h256l-68 -425h-119z" />
<glyph unicode="&#x201c;" horiz-adv-x="768" d="M85 1365h256l-68 -426h-119zM427 1365h256l-69 -426h-119z" />
<glyph unicode="&#x201d;" horiz-adv-x="768" d="M85 1365h256l-68 -426h-119zM427 1365h256l-69 -426h-119z" />
<glyph unicode="&#x201e;" horiz-adv-x="768" d="M85 256h256l-68 -425h-119zM427 256h256l-69 -425h-119z" />
<glyph unicode="&#x2022;" horiz-adv-x="512" d="M85 597v86q0 104 33 137q34 33 138 33t137 -33q34 -33 34 -137v-86q0 -104 -34 -137q-33 -33 -137 -33t-138 33q-33 33 -33 137z" />
<glyph unicode="&#x2026;" horiz-adv-x="1109" d="M85 0v256h256v-256h-256zM427 0v256h256v-256h-256zM768 0v256h256v-256h-256z" />
<glyph unicode="&#x202f;" horiz-adv-x="358" />
<glyph unicode="&#x2039;" horiz-adv-x="561" d="M85 683l125 341h266l-126 -341l126 -342h-266z" />
<glyph unicode="&#x203a;" horiz-adv-x="561" d="M85 341l127 342l-127 341h267l124 -341l-124 -342h-267z" />
<glyph unicode="&#x205f;" horiz-adv-x="448" />
<glyph unicode="&#x20ac;" horiz-adv-x="1067" d="M43 469v171h85v85h-85v171h85v43q0 426 427 426q426 0 426 -426v-86h-256v86q0 104 -33 137t-137 33q-120 0 -151 -49q-20 -35 -20 -164h256v-171h-256v-85h171v-171h-171v-42q0 -104 33 -138q34 -33 138 -33t137 33q33 34 33 138v85h256v-85q0 -427 -426 -427 q-427 0 -427 427v42h-85z" />
<glyph unicode="&#x2122;" horiz-adv-x="1736" d="M85 1195v170h570v-170h-199v-741h-171v741h-200zM683 454v626q0 285 285 285q151 0 198 -99q46 99 199 99q285 0 285 -285v-626h-170v626q0 69 -23 92t-92 23q-68 0 -91 -23t-23 -92v-626h-171v626q0 70 -22 92q-23 23 -90 23q-69 0 -92 -23t-23 -92v-626h-170z" />
<glyph unicode="&#xe000;" horiz-adv-x="1280" d="M0 0v1280h1280v-1280h-1280z" />
</font>
</defs>
</svg>
